<svg xmlns="http://www.w3.org/2000/svg" xml:space="preserve" fill-rule="evenodd" clip-rule="evenodd" image-rendering="optimizeQuality" shape-rendering="geometricPrecision" text-rendering="geometricPrecision" viewBox="0 0 10945.65 3024.4">
  <path fill-rule="nonzero" d="M400.38 605.01 0 1207.06l5.94 590.19 8.89 590.19 394.45 8.89 391.49 8.89V1186.29l198.71-296.58c106.77-163.12 207.6-287.68 219.47-275.81 11.86 11.86 109.74 157.18 216.5 317.34l195.74 293.61v1147.76h741.44V1171.47l-385.55-587.22L1601.53-.01H800.77L400.39 605.01V605zm2684.03 981.68v818.56l157.18-8.89 154.22-8.89 5.94-311.41c2.97-172.01 5.94-329.2 8.89-349.96 0-26.69 80.08-35.59 293.61-35.59 163.12 0 314.37 8.89 341.06 17.8 38.55 14.83 47.45 74.14 47.45 355.89v338.1H4419V771.12h-323.27l-8.89 332.17-8.89 335.13-332.17 8.89c-258.03 5.94-335.13 0-335.13-29.66-2.97-20.76-5.94-172.01-8.89-335.13l-5.94-296.58-154.22-8.89-157.18-8.89v818.56-.01zm1853.61-433.01c-252.09 112.7-391.49 376.66-361.83 673.24 38.55 364.79 287.68 584.26 658.41 584.26 216.5-2.97 385.55-77.11 513.08-234.29 275.81-332.17 151.26-871.94-237.26-1035.05-148.29-59.32-424.1-56.35-572.4 11.86l-.01-.01zm462.66 278.78c284.72 189.81 160.15 702.89-169.05 702.89-278.78 0-435.97-349.96-269.89-596.12 121.6-180.91 272.86-219.47 438.93-106.77zm670.27-317.34c-11.86 11.86-20.76 305.47-20.76 655.44v631.71h326.24v-418.18c0-228.37 14.83-441.9 29.66-474.52 47.45-88.97 201.67-154.22 311.41-133.46 183.88 35.59 204.64 91.94 222.43 578.33l14.83 433.01 154.22 8.89 154.22 8.89 8.89-430.04c8.89-403.35 11.86-433.01 80.08-504.18 142.35-151.26 373.69-124.57 459.7 56.35 35.59 74.14 47.45 195.74 47.45 486.39v388.52h332.18l-8.89-483.42c-11.86-441.9-17.8-489.35-83.04-593.16-88.97-145.32-255.06-228.37-447.83-228.37-169.05 0-240.23 29.66-361.83 142.35l-83.04 77.11-80.08-77.11c-124.57-115.66-195.74-142.35-373.69-142.35-121.6 0-186.84 17.8-266.92 71.18l-106.77 74.14-8.89-65.25c-5.94-53.38-29.66-65.25-142.35-74.14-74.14-5.94-145.32 0-157.18 11.86l-.02-.01zm2586.16 38.55c-263.95 145.32-391.49 438.93-323.27 753.31 56.35 269.89 216.5 435.97 480.46 492.32 260.99 59.32 527.91-41.52 670.27-249.12 97.87-139.4 86.01-163.12-86.01-163.12-118.63 0-172.01 14.83-240.23 74.14-177.95 151.26-498.25 50.42-498.25-154.22v-71.18l447.83 5.94c249.12 0 459.7-8.89 477.49-26.69 44.49-44.49-8.89-323.27-86.01-444.87-124.57-189.81-252.09-258.03-510.12-266.92-177.95-5.94-249.12 5.94-332.17 50.42h.02zm510.12 296.58c154.22 157.18 124.57 180.91-210.57 180.91-332.17 0-352.93-17.8-219.47-174.98 65.25-77.11 97.87-91.94 210.57-91.94 106.77 0 148.29 17.8 219.47 86.01zm459.69-326.24c-14.83 23.72 26.69 130.49 347 913.46l139.4 329.2-133.46 302.51c-74.14 166.09-124.57 314.37-115.66 329.2 17.8 32.63 252.09 35.59 296.58 2.97 17.8-11.86 148.29-299.55 293.61-643.58 142.35-344.03 317.34-756.27 385.55-919.39 71.18-163.12 115.66-308.44 103.8-320.3-11.86-14.83-86.01-20.76-166.09-14.83l-145.32 8.89-160.15 421.14c-88.97 234.29-172.01 424.1-180.91 424.1-11.86 0-83.04-177.95-163.12-394.45-77.11-213.54-154.22-409.28-172.01-430.04-32.63-41.52-305.47-50.42-329.2-8.89l-.01.01z"/>
</svg>