<svg xmlns="http://www.w3.org/2000/svg" xml:space="preserve" fill-rule="evenodd" clip-rule="evenodd" image-rendering="optimizeQuality" shape-rendering="geometricPrecision" text-rendering="geometricPrecision" viewBox="0 0 8843.91 2149.39">
  <path fill-rule="nonzero" d="M706.54 15.56C409.31 32.61 287.49 71.6 165.67 190.98 19.49 332.29 0 439.48 0 1124.1c0 691.92 17.05 789.37 172.98 940.42 70.66 68.22 87.71 75.53 107.2 46.29 12.18-19.49 107.2-224.15 209.53-450.72 104.76-229.01 229.01-504.32 282.61-616.39 51.16-112.07 92.58-211.96 92.58-221.71 0-48.73 104.76-148.61 158.36-148.61 99.89 0 477.52 151.05 511.63 204.65 17.05 29.23 87.71 248.5 158.36 489.7 204.65 711.41 224.15 767.45 246.07 779.63 34.11 24.36 211.96-175.42 243.64-272.87 41.42-131.56 58.47-1191.37 21.93-1381.4-36.55-190.04-138.87-336.21-280.18-404.43C1756.6 8.26 1296.13-20.98 706.54 15.57h-.01zm3179.42 589.59c-450.72 80.4-574.98 682.18-199.78 952.61 90.15 65.78 131.56 77.96 282.61 85.27 143.74 7.31 197.34 0 277.74-41.42 131.56-68.22 143.74-92.58 70.66-165.67l-60.91-60.91-112.07 41.42c-138.87 53.6-265.56 34.11-358.14-58.47-138.87-138.87-112.07-399.56 48.73-506.76 97.45-65.78 185.16-70.66 321.6-17.05 97.45 41.42 99.89 41.42 160.8-21.93 73.09-70.66 60.91-97.45-60.91-160.8-116.94-58.47-233.89-73.09-370.32-46.29h-.01zm4343.99-2.43c-270.43 51.16-445.85 258.25-445.85 526.25 2.44 219.27 151.05 428.8 353.27 494.58 141.31 46.29 380.07 21.93 484.83-48.73 109.64-75.53 202.22-246.07 214.39-389.81l7.31-109.64-272.87-7.31-275.31-7.31v85.27c0 95.01 26.8 112.07 185.16 112.07 126.69 0 141.31 41.42 43.85 119.38-138.87 109.64-319.16 87.71-436.1-51.16-80.4-95.01-85.27-297.23-9.74-394.69 114.51-146.18 306.98-172.98 455.59-65.78l73.09 51.16 63.34-51.16c95.01-73.09 75.53-141.31-58.47-207.09-134-63.34-248.5-80.4-382.5-56.04l.01-.01zm-5065.14 29.23c-4.88 17.05-7.31 248.5-4.88 516.5l7.31 487.27 104.76 7.31 102.33 7.31V600.28h-97.45c-58.47 0-104.76 12.18-112.07 31.67h.01zm1291.26 0c-4.88 17.05-7.31 248.5-4.88 516.5l7.31 487.27h730.9l7.31-70.66c4.88-38.98-2.44-80.4-14.62-92.58-14.62-14.62-126.69-26.8-253.38-29.23l-226.58-2.44-7.31-114.51-7.31-114.51 226.58-7.31 226.58-7.31v-170.54l-231.45-12.18c-126.69-7.31-229.01-19.49-224.15-31.67 2.44-9.74 4.88-56.04 4.88-102.33v-85.27h487.28v-194.9h-353.27c-265.56 0-358.14 7.31-367.88 31.67zm828.36 0c-4.88 17.05-7.31 248.5-4.88 516.5l7.31 487.27 194.91 7.31c358.14 14.62 548.18-65.78 582.29-248.5 19.49-97.45-12.18-185.16-85.27-253.38l-51.16-51.16 51.16-65.78c65.78-82.83 68.22-226.58 4.88-306.98-26.8-31.67-90.15-73.09-143.74-87.71-134-41.42-538.43-38.98-555.48 2.44v-.01zm504.32 202.21c51.16 60.91 4.88 151.05-85.27 168.11-177.85 34.11-238.76-17.05-199.78-168.11 9.74-46.29 26.8-51.16 134-43.85 68.22 4.88 134 24.36 151.05 43.85zm-7.31 389.82c70.66 48.73 73.09 168.11 4.88 204.65-29.23 14.62-102.33 24.36-165.67 19.49-114.51-7.31-114.51-7.31-121.82-102.33-4.88-51.16-2.44-107.2 4.88-126.69 17.05-46.29 209.53-43.85 277.74 4.88h-.01zm382.5-592.03c-7.31 17.05-9.74 248.5-7.31 516.5l7.31 487.27h706.54l7.31-90.15 7.31-90.15-250.94-7.31-250.94-7.31-7.31-114.51-7.31-114.51 226.58-7.31 226.58-7.31 7.31-92.58 7.31-90.15H6368.6l7.31-104.76 7.31-102.33 250.94-7.31 250.94-7.31-7.31-90.15-7.31-90.15-348.39-7.31c-268-4.88-350.83 0-358.14 26.8l.01-.01zm825.92 0c-4.88 17.05-7.31 248.5-4.88 516.5l7.31 487.27h194.9l7.31-202.22c4.88-109.64 17.05-199.78 29.23-199.78s87.71 92.58 170.54 207.09c148.61 204.65 151.05 207.09 255.82 207.09 58.47 0 112.07-9.74 119.38-21.93 7.31-12.18-21.93-68.22-65.78-126.69s-109.64-146.18-148.61-197.34l-65.78-87.71 95.01-53.6c233.89-131.56 194.91-455.59-63.34-531.12-134-41.42-514.07-38.98-531.12 2.44h.01zm514.07 246.07c19.49 58.47 14.62 75.53-34.11 114.51-36.55 29.23-95.01 46.29-163.23 46.29h-107.2V792.74l138.87 7.31c129.12 7.31 141.31 12.18 165.67 77.96z"/>
</svg>