<svg xmlns="http://www.w3.org/2000/svg" xml:space="preserve" fill-rule="evenodd" clip-rule="evenodd" image-rendering="optimizeQuality" shape-rendering="geometricPrecision" text-rendering="geometricPrecision" viewBox="0 0 14897.42 3696.24">
  <path fill-rule="nonzero" d="M1289.96 50.53C856.15 165.47 359.32 558.5 177.64 932.97c-348.53 708.18-181.68 1438.61 478.3 2102.29 341.12 337.41 611.78 500.55 1023.34 608.08 845.36 218.76 1724.11-259.54 2005.89-1093.78 96.4-289.21 88.99-760.08-18.54-1071.54C3318.1 476.93 2205.78-194.18 1289.97 50.54l-.01-.01zm1138.28 381.9c348.53 163.14 700.76 519.09 875.03 882.44 103.82 222.47 118.65 289.21 118.65 567.29-3.71 255.84-18.54 348.53-88.99 482.01-192.8 378.19-467.18 559.87-878.73 585.83-456.06 29.66-889.86-159.43-1234.68-537.63-385.61-418.98-541.34-889.86-430.1-1319.96 140.9-552.46 496.84-815.7 1075.25-793.45 244.71 11.12 344.82 33.37 563.58 133.48h-.01zm-860.19 259.54c-296.62 133.48-452.35 437.52-415.27 804.58 25.95 248.42 137.19 463.47 352.24 678.51 244.71 244.71 482.01 348.53 804.58 352.24 322.58 3.71 526.5-92.69 674.81-318.87 92.69-137.19 103.82-189.1 103.82-452.35 0-259.54-14.83-322.58-100.11-470.89-315.16-533.92-960.3-804.58-1420.07-593.24h-.01zm849.07 352.24c229.88 122.36 367.07 318.87 381.9 548.75 18.54 233.59-33.37 348.53-207.64 463.47-470.89 315.16-1245.8-337.41-989.97-834.24 152.02-296.62 474.6-367.07 815.7-177.97h.01zm-470.89 274.38c-144.6 159.43 11.12 463.47 259.54 511.67 163.14 29.66 326.28-122.36 292.91-274.38-59.32-244.71-411.56-396.73-552.46-237.3l.01.01zm4319.53-563.58c-88.99 63.03-111.23 229.88-37.08 304.04 63.03 63.03 237.3 55.62 304.04-14.83 85.28-81.57 74.16-222.47-22.25-289.21-44.49-33.37-100.11-59.32-122.36-59.32s-77.86 25.95-122.36 59.32h.01zm5598.7 0c-88.99 63.03-111.23 229.88-37.08 304.04 25.95 25.95 96.4 44.49 159.43 44.49 140.9 0 203.93-59.32 203.93-189.1 0-100.11-111.23-218.76-203.93-218.76-22.25 0-77.86 25.95-122.36 59.32l.01.01zm-7311.67 29.66v1916.9c0 22.25 70.45 33.37 177.97 25.95l174.27-11.12 11.12-289.21 11.12-285.5h215.05c281.79 0 519.09-85.28 674.81-244.71 111.23-114.94 126.06-152.02 137.19-381.9 18.54-333.7-51.91-489.43-285.5-626.6-155.73-92.69-207.64-100.11-641.45-114.94-263.25-3.71-474.6 0-474.6 11.12h.01zm930.64 426.39c77.86 81.57 107.53 144.6 107.53 244.71 0 100.11-29.66 163.14-107.53 244.71-96.4 96.4-133.48 107.53-333.7 107.53h-226.17v-704.48h226.17c200.22 0 237.3 11.12 333.7 107.53zm3025.52-415.27c-33.37 29.66-33.37 1801.97-3.71 1879.83 33.37 81.57 329.99 81.57 363.36 0 11.12-33.37 22.25-166.85 22.25-296.62v-237.3h218.76c522.8 0 819.41-248.42 819.41-685.93 0-326.28-137.19-522.8-441.23-630.32-163.14-55.62-930.64-81.57-978.84-29.66zm926.94 396.73c85.28 74.16 103.82 118.65 103.82 263.25s-18.54 189.1-103.82 263.25c-85.28 74.16-144.6 88.99-326.28 88.99h-218.76v-704.48h218.76c181.68 0 241.01 14.83 326.28 88.99zm4708.83-285.49c-14.83 11.12-25.95 103.82-25.95 203.93 0 174.27-3.71 177.97-111.23 177.97-103.82 0-111.23 11.12-111.23 126.06 0 111.23 11.12 129.77 103.82 140.9l100.11 11.12 18.54 444.93c11.12 255.84 40.79 482.01 66.74 526.5 70.45 129.77 241.01 196.51 489.43 196.51h222.47v-296.62h-148.31c-255.84 0-300.33-81.57-289.21-511.67l11.12-359.65 215.05-11.12 211.34-11.12v-252.12l-211.34-11.12-215.05-11.12-11.12-196.51-11.12-192.8h-140.9c-77.86 0-152.02 11.12-163.14 25.95l-.02-.02zm-6725.85 381.9c-44.49 18.54-107.53 77.86-144.6 129.77-66.74 103.82-107.53 92.69-107.53-29.66 0-66.74-25.95-85.28-137.19-92.69l-140.9-11.12v1453.42l177.97-11.12 174.27-11.12 18.54-511.67c14.83-452.35 25.95-519.09 88.99-567.29 100.11-70.45 292.91-66.74 389.32 11.12 70.45 59.32 77.86 111.23 85.28 567.29l11.12 500.55 177.97 11.12 174.27 11.12v-559.87c0-608.08-22.25-704.47-207.64-849.07-107.53-81.57-400.44-103.82-559.87-40.79zm3010.69 14.83c-556.17 203.93-615.49 1067.83-92.69 1375.58 100.11 59.32 192.8 74.16 426.39 74.16 348.53 0 515.38-81.57 678.51-326.28 85.28-126.06 96.4-185.39 96.4-418.98 0-241.01-11.12-289.21-107.53-430.1-63.03-85.28-166.85-189.1-233.59-226.17-163.14-96.4-567.29-118.65-767.5-48.2l.01-.02zm519.09 304.04c233.59 111.23 315.16 496.84 140.9 689.64-344.82 389.32-908.4-11.12-700.76-500.55 37.08-92.69 96.4-155.73 177.97-192.8 159.43-70.45 233.59-66.74 381.9 3.71v-.01zm2076.33-315.17c-40.79 22.25-114.94 88.99-166.85 152.02l-92.69 107.53v-122.36c0-114.94-7.42-122.36-137.19-133.48l-140.9-11.12v1453.42l177.97-11.12 174.27-11.12 11.12-482.01c7.42-430.1 18.54-489.43 88.99-563.58 103.82-111.23 322.58-114.94 422.69-7.42 59.32 66.74 70.45 148.31 81.57 578.41l14.83 496.84 170.56-11.12 174.27-11.12 11.12-400.44c14.83-567.29-33.37-793.45-196.51-945.47-111.23-103.82-155.73-118.65-322.58-118.65-107.53 0-229.88 18.54-270.67 40.79v-.01zm-6803.72 719.3v726.71l177.97-11.12 174.27-11.12V1307.46l-174.27-11.12-177.97-11.12v726.71zm5598.71 3.71v723.01l177.97-11.12 174.27-11.12 11.12-715.59 7.42-711.88h-370.78v726.71-.01z"/>
</svg>