<svg xmlns="http://www.w3.org/2000/svg" xml:space="preserve" fill-rule="evenodd" clip-rule="evenodd" image-rendering="optimizeQuality" shape-rendering="geometricPrecision" text-rendering="geometricPrecision" viewBox="0 0 11875.28 3620.12">
  <path fill-rule="nonzero" d="M1240.6 28.48C947.74 89.5 976.2-8.13 976.2 874.53c0 911.13-28.47 850.12 406.76 878.59l223.72 16.27 12.2-886.73L1627.02 0l-150.5 4.07c-85.41 4.07-191.18 12.2-235.92 24.41zm764.7 28.47c-16.27 32.54-24.41 264.4-12.2 520.65l20.34 459.63 162.7-12.2c89.48-8.14 227.79-28.47 305.06-44.75l142.36-28.47V146.43l-264.4-73.22c-325.4-85.41-313.2-85.41-353.88-16.27l.01-.01zM183.04 239.99 20.34 264.4 8.14 907.07c-12.2 736.23-32.54 695.55 398.62 724.02l223.72 16.27 12.2-724.02 8.14-719.96-150.5 4.07c-85.41 4.07-227.79 20.34-317.27 32.54zm2733.39-12.2c-52.88 52.88-32.54 736.23 24.41 756.57 24.41 12.2 166.77 0 313.2-24.41l264.4-44.75V349.82l-162.7-48.81c-280.66-81.36-410.83-101.68-439.3-73.22h-.01zm4287.2 162.7c-268.45 223.72-105.75 667.08 239.99 667.08s508.44-443.37 239.99-667.08c-69.15-61.02-174.9-105.75-239.99-105.75-65.08 0-170.84 44.75-239.99 105.75zm-2599.16 24.4c-36.61 36.61-48.81 418.96-48.81 1464.32 0 1228.4 8.14 1419.57 61.02 1439.91 77.29 32.54 593.87-61.02 663.01-117.96 40.68-32.54 52.88-170.84 44.75-524.71-4.07-264.4 8.14-484.04 28.47-488.1 28.47-12.2 252.19 244.06 687.41 797.23 109.82 134.23 162.7 162.7 447.44 231.85 178.97 40.68 349.81 77.29 378.28 77.29 97.63 0 44.75-117.96-187.11-435.23-126.09-174.9-301-410.83-386.42-524.71l-150.5-211.51 227.79-109.82c333.54-162.7 443.37-349.81 443.37-752.5 0-280.66-12.2-325.4-113.89-463.7-166.77-215.58-386.42-345.74-663.01-390.49-353.88-56.95-1370.76-52.88-1431.78 8.14zm1277.21 561.33c146.43 56.95 215.58 154.57 215.58 305.06 0 235.92-170.84 345.74-549.12 345.74h-219.65V935.54h219.65c122.02 0 272.52 20.34 333.54 40.68zm4917.67-528.78c-12.2 20.34 8.14 52.88 48.81 69.15 105.75 40.68 134.23 93.55 134.23 288.79 0 260.33 97.63 199.31 113.89-69.15 12.2-191.18 20.34-211.51 101.68-199.31 77.29 12.2 89.48 40.68 101.68 227.79 12.2 235.92 93.55 276.59 130.16 69.15 20.34-105.75 24.41-109.82 77.29-44.75 52.88 61.02 61.02 61.02 130.16 0 73.22-65.08 77.29-65.08 77.29 36.61 0 122.02 73.22 187.11 126.09 105.75 48.81-77.29 44.75-406.76-4.07-484.04-36.61-52.88-52.88-44.75-122.02 40.68-44.75 56.95-81.36 113.89-81.36 130.16 0 73.22-105.75 20.34-166.77-81.36-61.02-105.75-85.41-113.89-353.88-122.02-166.77-8.14-296.93 8.14-313.2 32.54l.01.01zM2269.7 1289.42c-353.88 16.27-382.35 52.88-239.99 268.45 122.02 187.11 244.06 248.12 553.19 272.52l284.72 20.34v162.7c0 154.57-4.07 162.7-122.02 154.57-390.49-32.54-2391.71-219.65-2550.36-239.99L0 1903.6v1716.5h101.68c56.95 0 484.04-28.47 947.74-61.02 463.7-32.54 1118.58-77.29 1452.12-101.68 337.61-24.41 707.75-52.88 825.71-65.08l211.51-20.34V1260.93l-475.9 8.14c-264.4 4.07-622.33 16.27-793.18 20.34l.01-.01zm6129.79 48.81c-345.74 154.57-492.17 488.1-366.08 809.44 81.36 199.31 223.72 296.93 606.07 414.89 150.5 48.81 284.72 113.89 296.93 150.5 61.02 158.63-272.52 166.77-565.39 12.2l-170.84-89.48-178.97 191.18-178.97 187.11 89.48 97.63c195.24 207.45 776.91 345.74 1138.92 268.45 374.22-81.36 581.66-305.06 577.59-626.41l-4.07-158.63 85.41 154.57c122.02 235.92 345.74 447.44 573.53 545.05 174.9 77.29 264.4 89.48 577.59 73.22 325.4-12.2 394.55-28.47 561.32-134.23 105.75-69.15 191.18-142.36 191.18-162.7 0-24.41-73.22-122.02-162.7-215.58l-162.7-166.77-134.23 77.29c-126.09 73.22-268.45 101.68-479.97 89.48-101.68-8.14-321.33-183.04-321.33-256.26 0-20.34 309.13-36.61 683.35-36.61 475.9 0 699.62-16.27 732.16-48.81 69.15-69.15 61.02-349.81-16.27-581.66-73.22-207.45-296.93-463.7-504.37-569.46-195.24-101.68-597.93-122.02-858.25-44.75-439.3 126.09-768.77 557.26-768.77 1000.61v162.7l-150.5-150.5c-105.75-105.75-248.12-183.04-455.56-256.26-325.4-109.82-390.49-178.97-239.99-248.12 73.22-32.54 138.29-28.47 276.59 24.41 101.68 36.61 211.51 73.22 244.06 85.41 32.54 8.14 142.36-56.95 244.06-146.43l183.04-162.7-150.5-138.29c-85.41-73.22-223.72-154.57-309.13-178.97-244.06-73.22-691.48-61.02-882.66 28.47l-.01-.01zm2643.9 553.19c56.95 52.88 101.68 113.89 101.68 138.29 0 48.81-732.16 77.29-764.7 28.47-12.2-20.34 36.61-89.48 109.82-154.57 170.84-150.5 410.83-158.63 553.19-12.2v.01zm-3831.62-561.33-134.23 16.27v1989.03h317.27c170.84 0 337.61-16.27 366.08-32.54 36.61-28.47 48.81-256.26 40.68-1008.75l-12.2-972.15-223.72-4.07c-122.02-4.07-284.72 4.07-353.88 12.2z"/>
</svg>