<svg xmlns="http://www.w3.org/2000/svg" xml:space="preserve" fill-rule="evenodd" clip-rule="evenodd" image-rendering="optimizeQuality" shape-rendering="geometricPrecision" text-rendering="geometricPrecision" viewBox="0 0 9821.13 2244.41">
  <path fill-rule="nonzero" d="M699.97 72.43c-234.15 96.89-476.38 325.66-597.49 565.19-83.43 166.87-91.5 209.93-99.58 457.54-8.07 250.3-2.69 287.98 61.9 430.62 209.93 460.23 586.73 718.61 1049.64 718.61 527.51 2.69 971.6-349.88 1106.17-874.71 64.6-247.61 37.68-460.23-86.13-715.91-121.11-255.68-293.36-430.62-538.28-549.05-166.87-83.43-209.93-91.5-454.84-96.89-239.53-8.07-287.98 0-441.39 64.6l.01.01zm252.99 487.14c0 174.94 10.76 226.08 72.67 328.35 88.82 150.72 169.56 228.77 296.06 282.6 148.03 59.21 312.2 51.14 457.54-26.92 69.97-37.68 134.57-67.28 142.64-67.28 29.61 0 10.76 193.78-32.29 301.44-104.96 271.84-250.3 414.48-527.51 516.75-153.41 56.52-379.49 48.45-538.28-18.84l-104.96-45.75 56.52-69.97c78.05-96.89 69.97-183.02-18.84-285.29-80.74-88.82-193.78-113.04-320.28-67.28-51.14 18.84-67.28 10.76-88.82-48.45-43.06-110.35-32.29-363.34 18.84-508.68 59.21-164.17 239.53-368.73 390.26-444.08 188.39-91.5 196.47-86.13 196.47 153.41v-.02zm3350.8-505.98c-64.6 64.6-72.67 220.7-10.76 279.91 99.58 99.58 287.98 69.97 333.73-51.14 40.37-104.96 32.29-145.34-40.37-215.31-80.74-83.43-207.24-88.82-282.6-13.46h.01zm1978.18 13.46c-137.26 134.57-48.45 322.97 148.03 322.97 131.88 0 188.39-59.21 188.39-193.78 0-183.02-204.55-263.76-336.42-129.18zm1071.18 481.76c-368.73 115.73-565.19 457.54-495.22 858.56 64.6 363.34 344.5 584.04 740.14 584.04 357.95 0 643.25-193.78 732.06-500.6 83.43-285.29-16.15-654.01-218-807.42-207.24-158.79-511.37-209.93-758.97-134.57h-.01zm481.76 344.5c209.93 148.03 226.08 508.68 32.29 697.07-86.13 83.43-107.66 91.5-266.45 91.5-145.34 0-180.32-10.76-242.23-67.28-110.35-102.28-148.03-196.47-148.03-363.34 0-228.77 69.97-336.42 261.06-406.4 121.11-43.06 261.06-26.92 363.34 48.45h.01zm-2629.5-344.5c-266.45 75.36-392.95 322.97-287.98 562.51 43.06 99.58 78.05 131.88 196.47 188.39 80.74 37.68 223.39 75.36 320.28 86.13 218 21.53 296.06 67.28 296.06 174.94 0 61.9-18.84 88.82-80.74 121.11-158.79 83.43-433.31 29.61-470.99-94.2-13.46-45.75-40.37-53.83-177.63-53.83-142.64 0-158.79 5.39-158.79 56.52 0 139.95 153.41 306.82 333.73 360.65 285.29 86.13 610.95 29.61 767.05-131.88 115.73-118.42 145.34-322.97 69.97-462.92-59.21-110.35-255.68-218-444.08-239.53-314.89-37.68-422.55-115.73-339.12-242.23 86.13-129.18 390.26-107.66 452.16 29.61 29.61 61.9 45.75 67.28 180.32 59.21 148.03-8.07 150.72-8.07 142.64-86.13-29.61-263.76-433.31-430.62-799.35-328.35h-.02zm3924.06-8.07c-94.2 26.92-250.3 169.56-250.3 228.77 0 21.53-10.76 37.68-26.92 37.68-13.46 0-26.92-53.83-26.92-121.11V564.97h-269.14v680.93c0 376.8 5.39 689 10.76 694.38 5.39 5.39 86.13 5.39 174.94 2.69l164.17-10.76v-915.08l91.5-91.5c99.58-99.58 199.17-118.42 325.66-59.21 129.18 59.21 148.03 139.95 148.03 627.1v444.08h349.88v-473.69c0-263.76-13.46-524.83-29.61-592.11-69.97-277.21-355.27-419.86-662.08-331.05v-.01zM2662 570.35c0 5.39 96.89 309.51 212.62 680.93l212.62 672.85h584.03l166.87-605.57c91.5-333.73 174.94-640.55 183.02-680.93l18.84-75.36-172.25 8.07-169.56 8.07-134.57 511.37c-158.79 602.87-158.79 600.18-193.78 565.19-16.15-16.15-99.58-266.45-185.71-559.81l-156.1-530.2h-183.02c-99.58 0-183.02 2.69-183.02 5.39l.02.01zm1458.74 121.11c8.07 123.81 10.76 129.18 96.89 137.26l86.13 8.07v546.36c0 298.74 5.39 551.73 10.76 557.12 8.07 5.39 88.82 5.39 183.02-2.69l169.56-13.46V578.42l-277.21-8.07-277.21-8.07 8.07 129.18v-.01zM6107 699.53V834.1h188.4v546.36c0 301.44 5.39 554.43 10.76 559.81 5.39 5.39 86.13 5.39 174.94 2.69l164.17-10.76V564.96h-538.28v134.57h.01z"/>
</svg>